<?xml version="1.0" encoding="UTF-8" standalone="no"?>
<svg
   xmlns:dc="http://purl.org/dc/elements/1.1/"
   xmlns:cc="http://creativecommons.org/ns#"
   xmlns:rdf="http://www.w3.org/1999/02/22-rdf-syntax-ns#"
   xmlns:svg="http://www.w3.org/2000/svg"
   xmlns="http://www.w3.org/2000/svg"
   xmlns:sodipodi="http://sodipodi.sourceforge.net/DTD/sodipodi-0.dtd"
   xmlns:inkscape="http://www.inkscape.org/namespaces/inkscape"
   width="336pt"
   height="307pt"
   viewBox="0 0 336 307"
   version="1.1"
   id="svg2"
   inkscape:version="0.48.4 r9939"
   sodipodi:docname="dna.svg">
  <metadata
     id="metadata52">
    <rdf:RDF>
      <cc:Work
         rdf:about="">
        <dc:format>image/svg+xml</dc:format>
        <dc:type
           rdf:resource="http://purl.org/dc/dcmitype/StillImage" />
      </cc:Work>
    </rdf:RDF>
  </metadata>
  <defs
     id="defs50" />
  <sodipodi:namedview
     pagecolor="#ffffff"
     bordercolor="#666666"
     borderopacity="1"
     objecttolerance="10"
     gridtolerance="10"
     guidetolerance="10"
     inkscape:pageopacity="0"
     inkscape:pageshadow="2"
     inkscape:window-width="1366"
     inkscape:window-height="746"
     id="namedview48"
     showgrid="false"
     inkscape:zoom="1.2299674"
     inkscape:cx="292.24715"
     inkscape:cy="214.02097"
     inkscape:window-x="0"
     inkscape:window-y="22"
     inkscape:window-maximized="0"
     inkscape:current-layer="svg2" />
  <path
     fill="#1670c7"
     d=" M 218.39 26.03 C 231.16 38.58 243.84 51.23 256.39 64.01 C 253.61 66.81 250.85 69.62 248.02 72.38 C 236.03 60.56 223.80 48.92 212.83 36.12 C 214.68 32.76 216.53 29.40 218.39 26.03 Z"
     id="path6" />
  <path
     fill="#1670c7"
     d=" M 197.90 63.95 C 198.69 50.50 205.78 38.53 214.27 28.45 C 213.69 31.33 212.07 34.34 213.15 37.28 C 215.44 43.08 216.65 49.21 217.27 55.40 C 214.14 53.17 211.12 50.80 208.00 48.57 C 207.47 54.36 207.09 60.17 206.72 65.97 C 211.83 71.53 219.34 76.33 219.29 84.83 C 223.37 109.80 231.38 134.43 229.89 160.02 C 229.11 172.01 223.60 183.05 216.54 192.56 C 217.37 189.85 218.25 187.16 219.12 184.46 C 216.54 178.99 216.41 172.83 215.67 166.92 C 217.79 168.45 219.90 169.99 222.06 171.47 C 221.57 165.53 221.91 159.41 220.43 153.59 C 217.85 146.68 210.10 142.70 209.06 135.02 C 202.97 111.85 196.66 88.11 197.90 63.95 Z"
     id="path8" />
  <path
     fill="#1670c7"
     d=" M 208.53 50.71 C 219.94 59.72 229.88 70.36 240.09 80.67 C 237.16 83.44 234.26 86.23 231.35 89.02 C 223.70 81.12 215.93 73.34 208.02 65.71 C 208.13 60.71 208.14 55.70 208.53 50.71 Z"
     id="path10" />
  <path
     fill="#1670c7"
     d=" M 251.64 75.98 C 254.39 73.18 257.15 70.38 259.94 67.62 C 271.53 78.99 283.15 90.37 294.36 102.13 C 288.50 103.01 280.68 106.07 276.45 100.57 C 268.54 92.01 260.21 83.87 251.64 75.98 Z"
     id="path12" />
  <path
     fill="#1670c7"
     d=" M 234.68 92.39 C 237.67 89.69 240.64 86.96 243.71 84.34 C 250.37 90.80 256.95 97.34 263.31 104.09 C 257.57 103.59 251.53 103.93 246.04 101.89 C 241.58 99.64 238.31 95.71 234.68 92.39 Z"
     id="path14" />
  <path
     fill="#1670c7"
     d=" M 151.63 97.58 C 166.82 92.55 183.15 93.90 198.74 96.08 C 200.17 103.44 201.89 110.74 203.24 118.12 C 192.78 116.35 182.41 114.06 171.88 112.73 C 181.20 113.91 188.26 119.91 194.27 126.69 C 191.29 129.33 188.37 132.03 185.31 134.57 C 178.31 127.34 170.89 120.53 163.84 113.35 C 166.34 113.08 168.85 112.79 171.36 112.50 C 159.64 111.17 147.70 110.15 135.99 111.96 C 128.95 113.48 122.98 117.73 116.57 120.80 C 126.51 110.78 138.45 102.68 151.63 97.58 Z"
     id="path16" />
  <path
     fill="#1670c7"
     d=" M 281.43 105.55 C 290.67 105.62 298.71 100.53 307.58 98.83 C 303.45 105.68 298.60 112.70 291.02 116.02 C 272.00 126.82 249.15 126.36 228.18 122.91 C 226.57 115.27 224.96 107.63 223.16 100.04 C 242.52 102.36 261.83 106.63 281.43 105.55 Z"
     id="path18" />
  <path
     fill="#1670c7"
     d=" M 131.80 114.08 C 136.51 113.39 141.62 111.29 146.29 112.72 C 157.57 121.91 167.50 132.76 177.16 143.64 C 174.43 146.20 171.72 148.79 168.97 151.33 C 156.47 139.02 144.00 126.68 131.80 114.08 Z"
     id="path20" />
  <path
     fill="#1670c7"
     d=" M 115.31 131.68 C 111.46 127.41 118.50 123.76 120.76 120.44 C 134.11 133.49 147.30 146.70 160.39 160.01 C 157.61 162.81 154.84 165.63 152.02 168.39 C 139.81 156.13 127.23 144.22 115.31 131.68 Z"
     id="path22" />
  <path
     fill="#1670c7"
     d=" M 102.01 156.97 C 102.56 146.38 106.88 136.43 112.51 127.59 C 115.01 133.74 115.64 140.37 116.36 146.92 C 113.73 145.19 111.14 143.43 108.48 141.77 C 108.16 147.68 107.72 153.87 109.50 159.62 C 112.92 165.92 120.69 169.44 121.88 177.00 C 127.55 197.81 133.03 218.87 134.52 240.47 C 135.98 258.08 129.82 276.51 116.51 288.47 C 119.65 279.26 115.47 269.85 114.80 260.63 C 117.24 262.16 119.61 263.80 122.03 265.38 C 121.87 259.64 122.51 253.82 121.70 248.12 C 118.57 242.57 112.70 238.22 112.73 231.17 C 108.69 206.52 100.76 182.23 102.01 156.97 Z"
     id="path24" />
  <path
     fill="#1670c7"
     d=" M 197.34 130.05 C 203.54 136.06 209.83 141.98 215.85 148.19 C 221.32 153.63 219.80 162.26 221.07 169.21 C 210.41 159.01 199.88 148.66 189.58 138.10 C 192.15 135.40 194.75 132.72 197.34 130.05 Z"
     id="path26" />
  <path
     fill="#1670c7"
     d=" M 109.39 143.61 C 121.05 154.38 132.51 165.43 143.44 176.95 C 140.77 179.66 138.10 182.37 135.40 185.04 C 128.47 177.81 121.16 170.97 114.17 163.80 C 108.39 158.88 109.71 150.47 109.39 143.61 Z"
     id="path28" />
  <path
     fill="#1670c7"
     d=" M 172.62 155.00 C 175.38 152.19 178.14 149.39 180.94 146.61 C 193.24 159.14 206.46 170.88 217.99 184.11 C 216.92 187.98 214.40 191.24 212.40 194.67 C 198.95 181.64 185.77 168.32 172.62 155.00 Z"
     id="path30" />
  <path
     fill="#1670c7"
     d=" M 155.64 171.99 C 158.38 169.18 161.14 166.38 163.93 163.61 C 176.60 176.27 189.78 188.46 201.62 201.91 C 196.96 202.77 192.27 203.30 187.56 203.51 C 176.24 193.73 166.31 182.45 155.64 171.99 Z"
     id="path32" />
  <path
     fill="#1670c7"
     d=" M 138.78 188.25 C 141.73 185.63 144.65 182.96 147.69 180.43 C 155.24 188.31 163.64 195.37 170.60 203.80 C 164.50 202.94 158.06 202.97 152.31 200.56 C 147.08 197.35 143.05 192.59 138.78 188.25 Z"
     id="path34" />
  <path
     fill="#1670c7"
     d=" M 52.08 195.23 C 68.70 190.21 87.09 189.19 103.77 194.13 C 106.02 201.31 107.05 208.81 108.76 216.13 C 87.07 213.26 65.28 209.03 43.32 211.44 C 36.82 212.83 31.06 216.48 24.36 217.18 C 30.00 206.31 40.52 198.75 52.08 195.23 Z"
     id="path36" />
  <path
     fill="#1670c7"
     d=" M 192.89 204.83 C 200.77 203.90 207.62 199.92 214.54 196.40 C 203.23 206.84 190.34 216.51 175.06 220.03 C 161.34 223.27 147.06 222.05 133.27 219.94 C 131.89 212.62 130.21 205.36 128.78 198.06 C 141.59 200.61 154.50 202.67 167.45 204.38 C 175.87 204.96 184.52 207.02 192.89 204.83 Z"
     id="path38" />
  <path
     fill="#1670c7"
     d=" M 37.58 213.77 C 41.96 213.14 46.35 211.98 50.80 212.21 C 61.41 220.75 70.41 231.12 80.17 240.62 C 77.43 243.19 74.72 245.78 71.97 248.33 C 60.42 236.90 48.75 225.58 37.58 213.77 Z"
     id="path40" />
  <path
     fill="#1670c7"
     d=" M 69.38 212.08 C 75.43 212.46 81.65 212.52 87.36 214.84 C 90.92 217.27 94.03 220.27 97.29 223.09 C 94.46 225.97 91.64 228.85 88.76 231.67 C 81.99 225.47 75.05 219.34 69.38 212.08 Z"
     id="path42" />
  <path
     fill="#1670c7"
     d=" M 100.26 226.97 C 106.81 233.61 114.19 239.55 119.97 246.89 C 121.31 252.15 120.70 257.86 121.10 263.29 C 111.05 254.65 101.99 244.93 92.52 235.68 C 95.08 232.76 97.69 229.88 100.26 226.97 Z"
     id="path44" />
  <path
     fill="#1670c7"
     d=" M 83.35 244.00 C 92.46 252.77 101.11 262.01 110.50 270.50 C 112.85 273.06 116.22 274.98 117.63 278.31 C 117.58 282.35 115.17 285.90 113.71 289.56 C 100.49 277.64 88.30 264.64 75.69 252.09 C 78.23 249.38 80.78 246.69 83.35 244.00 Z"
     id="path46" />
</svg>
